# xmcd
#
# Track frame offsets:
#	150
#	7825
#	30950
#	62625
#	73650
#	87450
#	100350
#	123900
#	138125
#	153625
#	163200
#	192900
#
# Disc length: 2675 seconds
#
# Revision: 2
# Processed by: cddbd v1.5.2PL0 Copyright (c) Steve Scherf et al.
# Submitted via: audiograbber 1.83.01
#
DISCID=980a710c
DTITLE=Various Artist - American Folk Blues Festival  '69
DYEAR=2002
DGENRE=Blues
TTITLE0=Juke Boy Bowner - Jumpin' with Juke Boy
TTITLE1=Earl Hooker with Carey Bell, Robert St. Julien, Mack Thompson - Going u
TTITLE1=p and down
TTITLE2=Carey Bell with Earl Hooker, Robert St. Julien, Mack Thompson - Medley:
TTITLE2=Rocking with chromanica - I feel bad bad bad
TTITLE3=Juke Boy Bowner - Runnung shoes
TTITLE4=John Jackson - Poor boy
TTITLE5=Clifton Chenier with Cleveland Chenier and Robert St. Julien - Zydeco e
TTITLE5=t pas sale
TTITLE6=Earl Hooker with Carey Bell, Robert St. Julien, Mack Thompson - Blue sh
TTITLE6=adows falll
TTITLE7=Clifton Chenier with Cleveland Chenier and Robert St. Julien - Wrap it 
TTITLE7=up
TTITLE8=Magic Sam, Robert St. Julien, Mack Thompson - Easy baby
TTITLE9=Magic Sam, Robert St. Julien, Mack Thompson - Looking good
TTITLE10=Whistling Alex Moore - Across the Atlantic ocean
TTITLE11=John Jackson  - Breakdown
EXTD=
EXTT0=Jame Roy Bonner
EXTT1=Earl Hooker
EXTT2=Carey Bell
EXTT3=Juke Boy Bonner
EXTT4=John Jackson
EXTT5=Clifton Chenier
EXTT6=Earl Hooker
EXTT7=Clifton Chenier
EXTT8=Magic Sam
EXTT9=Magic Sam
EXTT10=Whistling Alex Moore
EXTT11=John Jackson
PLAYORDER=
